<?xml version="1.0" encoding="utf-8"?>
<!-- Generator: Adobe Illustrator 25.0.1, SVG Export Plug-In . SVG Version: 6.00 Build 0)  -->
<!DOCTYPE svg PUBLIC "-//W3C//DTD SVG 1.1//EN" "http://www.w3.org/Graphics/SVG/1.1/DTD/svg11.dtd" [
	<!ENTITY ns_extend "http://ns.adobe.com/Extensibility/1.0/">
	<!ENTITY ns_ai "http://ns.adobe.com/AdobeIllustrator/10.0/">
	<!ENTITY ns_graphs "http://ns.adobe.com/Graphs/1.0/">
	<!ENTITY ns_vars "http://ns.adobe.com/Variables/1.0/">
	<!ENTITY ns_imrep "http://ns.adobe.com/ImageReplacement/1.0/">
	<!ENTITY ns_sfw "http://ns.adobe.com/SaveForWeb/1.0/">
	<!ENTITY ns_custom "http://ns.adobe.com/GenericCustomNamespace/1.0/">
	<!ENTITY ns_adobe_xpath "http://ns.adobe.com/XPath/1.0/">
]>
<svg version="1.1" id="Capa_1" xmlns:x="&ns_extend;" xmlns:i="&ns_ai;" xmlns:graph="&ns_graphs;"
	 xmlns="http://www.w3.org/2000/svg" xmlns:xlink="http://www.w3.org/1999/xlink" x="0px" y="0px" viewBox="0 0 562.4 562.4"
	 style="enable-background:new 0 0 562.4 562.4;" xml:space="preserve">
<style type="text/css">
	.st0{fill:#FFFFFF;}
</style>
<metadata>
	<sfw  xmlns="&ns_sfw;">
		<slices></slices>
		<sliceSourceBounds  bottomLeftOrigin="true" height="559.9" width="233.1" x="166.9" y="2.6"></sliceSourceBounds>
	</sfw>
</metadata>
<path class="st0" d="M178,175.7h210.9c12.7,0,11.7-21,10.4-31.5c-0.4-3.2-2.4-8-4.4-10.7L298.7,11.1c-8.4-14.8-22.1-14.8-30.5,0
	l-96.2,122.4c-1.9,2.7-3.9,7.5-4.4,10.7C166.3,154.7,165.2,175.7,178,175.7z"/>
<path class="st0" d="M171.9,426.4l96.2,122.4c8.4,14.8,22.1,14.8,30.5,0l96.2-122.4c1.9-2.7,3.9-7.5,4.4-10.7
	c1.3-10.5,2.4-31.5-10.4-31.5H178c-12.7,0-11.7,21-10.4,31.5C168,418.9,170,423.7,171.9,426.4z"/>
</svg>
